{
	"asset":{
		"generator":"Khronos glTF Blender I/O v4.3.47",
		"version":"2.0"
	},
	"scene":0,
	"scenes":[
		{
			"name":"Scene",
			"nodes":[
				0,
				1
			]
		}
	],
	"nodes":[
		{
			"mesh":0,
			"name":"brownbook.001",
			"rotation":[
				-0.25315922498703003,
				0.1478303223848343,
				-0.03294973075389862,
				0.9554951190948486
			],
			"translation":[
				-0.006912172771990299,
				0.33835482597351074,
				-0.5050367116928101
			]
		},
		{
			"mesh":1,
			"name":"greenbook.001",
			"rotation":[
				-0.25527602434158325,
				0.011636999435722828,
				0.0030726792756468058,
				0.9667932987213135
			],
			"translation":[
				-0.00839973147958517,
				0.29576221108436584,
				-0.480815589427948
			]
		}
	],
	"materials":[
		{
			"doubleSided":true,
			"name":"brownbook.001"
		},
		{
			"doubleSided":true,
			"name":"greenbook.001"
		}
	],
	"meshes":[
		{
			"name":"brownbook.001",
			"primitives":[
				{
					"attributes":{
						"POSITION":0,
						"NORMAL":1,
						"TEXCOORD_0":2
					},
					"indices":3,
					"material":0
				}
			]
		},
		{
			"name":"greenbook.001",
			"primitives":[
				{
					"attributes":{
						"POSITION":4,
						"NORMAL":5,
						"TEXCOORD_0":6
					},
					"indices":3,
					"material":1
				}
			]
		}
	],
	"accessors":[
		{
			"bufferView":0,
			"componentType":5126,
			"count":402,
			"max":[
				0.09591393172740936,
				0.021689558401703835,
				0.12853041291236877
			],
			"min":[
				-0.09595884382724762,
				-0.021689558401703835,
				-0.12853041291236877
			],
			"type":"VEC3"
		},
		{
			"bufferView":1,
			"componentType":5126,
			"count":402,
			"type":"VEC3"
		},
		{
			"bufferView":2,
			"componentType":5126,
			"count":402,
			"type":"VEC2"
		},
		{
			"bufferView":3,
			"componentType":5123,
			"count":1236,
			"type":"SCALAR"
		},
		{
			"bufferView":4,
			"componentType":5126,
			"count":402,
			"max":[
				0.12066732347011566,
				0.027287179604172707,
				0.16170144081115723
			],
			"min":[
				-0.12072378396987915,
				-0.027287179604172707,
				-0.16170141100883484
			],
			"type":"VEC3"
		},
		{
			"bufferView":5,
			"componentType":5126,
			"count":402,
			"type":"VEC3"
		},
		{
			"bufferView":6,
			"componentType":5126,
			"count":402,
			"type":"VEC2"
		}
	],
	"bufferViews":[
		{
			"buffer":0,
			"byteLength":4824,
			"byteOffset":0,
			"target":34962
		},
		{
			"buffer":0,
			"byteLength":4824,
			"byteOffset":4824,
			"target":34962
		},
		{
			"buffer":0,
			"byteLength":3216,
			"byteOffset":9648,
			"target":34962
		},
		{
			"buffer":0,
			"byteLength":2472,
			"byteOffset":12864,
			"target":34963
		},
		{
			"buffer":0,
			"byteLength":4824,
			"byteOffset":15336,
			"target":34962
		},
		{
			"buffer":0,
			"byteLength":4824,
			"byteOffset":20160,
			"target":34962
		},
		{
			"buffer":0,
			"byteLength":3216,
			"byteOffset":24984,
			"target":34962
		}
	],
	"buffers":[
		{
			"byteLength":28200,
			"uri":"books.bin"
		}
	]
}
