{
	"asset":{
		"generator":"Khronos glTF Blender I/O v4.3.47",
		"version":"2.0"
	},
	"extensionsUsed":[
		"KHR_materials_specular"
	],
	"scene":0,
	"scenes":[
		{
			"name":"Scene",
			"nodes":[
				7,
				8,
				9
			]
		}
	],
	"nodes":[
		{
			"mesh":0,
			"name":"guitar_adjust strings",
			"rotation":[
				-0.7071065902709961,
				0,
				0,
				0.7071069478988647
			],
			"scale":[
				-0.01535753346979618,
				-0.015357532538473606,
				-0.01535753533244133
			],
			"translation":[
				-0.023983508348464966,
				0.5074018836021423,
				-0.013054478913545609
			]
		},
		{
			"mesh":1,
			"name":"guitar_cable fixing base",
			"scale":[
				-0.101223886013031,
				-0.1012239009141922,
				-0.101223886013031
			],
			"translation":[
				-0.023983508348464966,
				0.5074021220207214,
				-0.013054955750703812
			]
		},
		{
			"mesh":2,
			"name":"guitar_freeze strings",
			"rotation":[
				0,
				1,
				0,
				7.549789415861596e-08
			],
			"scale":[
				-0.024334091693162918,
				-0.005437579471617937,
				-0.024334091693162918
			],
			"translation":[
				-0.023983508348464966,
				0.5074021220207214,
				-0.013054478913545609
			]
		},
		{
			"mesh":3,
			"name":"guitar_freeze strings.001",
			"scale":[
				-0.008617037907242775,
				-0.00861703883856535,
				-0.008617037907242775
			],
			"translation":[
				-0.023983508348464966,
				0.5074018836021423,
				-0.013054776936769485
			]
		},
		{
			"mesh":4,
			"name":"guitar_handle",
			"scale":[
				-0.09303995221853256,
				-0.022419840097427368,
				-0.07243796437978745
			],
			"translation":[
				-0.023983508348464966,
				0.5074021220207214,
				-0.013054776936769485
			]
		},
		{
			"mesh":5,
			"name":"guitar_handle.001",
			"scale":[
				-0.09303995221853256,
				-0.022419840097427368,
				-0.07243796437978745
			],
			"translation":[
				-0.023983508348464966,
				0.5074021220207214,
				-0.013054776936769485
			]
		},
		{
			"mesh":6,
			"name":"guitar_strings",
			"rotation":[
				-0.5000001192092896,
				0.49999985098838806,
				0.5,
				0.5
			],
			"scale":[
				-0.6718437075614929,
				-0.6718437671661377,
				-0.6718437671661377
			],
			"translation":[
				-0.02398350089788437,
				0.5074021220207214,
				-0.013054657727479935
			]
		},
		{
			"children":[
				0,
				1,
				2,
				3,
				4,
				5,
				6
			],
			"mesh":7,
			"name":"guitar_base",
			"rotation":[
				0.02167469635605812,
				0.7067745327949524,
				-0.7067744731903076,
				0.02167470008134842
			],
			"scale":[
				-0.2136790156364441,
				-0.29490360617637634,
				-0.23611992597579956
			],
			"translation":[
				0,
				0.1285267472267151,
				-0.48778337240219116
			]
		},
		{
			"camera":0,
			"name":"C\u00e1mara",
			"rotation":[
				-9.539981874695513e-06,
				-0.9999918937683105,
				-0.003092826809734106,
				0.002592142205685377
			],
			"translation":[
				0,
				0.4998807907104492,
				-2.870619773864746
			]
		},
		{
			"mesh":8,
			"name":"kitty_001",
			"translation":[
				0,
				0.27905264496803284,
				0
			]
		}
	],
	"cameras":[
		{
			"name":"C\u00e1mara.001",
			"perspective":{
				"aspectRatio":1.7777777777777777,
				"yfov":0.39959652046304894,
				"zfar":1000,
				"znear":0.10000000149011612
			},
			"type":"perspective"
		}
	],
	"materials":[
		{
			"doubleSided":true,
			"name":"Material.003",
			"pbrMetallicRoughness":{
				"baseColorFactor":[
					0.12142854928970337,
					0.12142854928970337,
					0.12142854928970337,
					1
				],
				"metallicFactor":0.8203125,
				"roughnessFactor":0.2109375
			}
		},
		{
			"doubleSided":true,
			"name":"Material",
			"pbrMetallicRoughness":{
				"baseColorFactor":[
					0.08571428060531616,
					0.08571428060531616,
					0.08571428060531616,
					1
				],
				"metallicFactor":0,
				"roughnessFactor":0.5
			}
		},
		{
			"doubleSided":true,
			"name":"basketball_black",
			"pbrMetallicRoughness":{
				"baseColorFactor":[
					0.014285743236541748,
					0.014285743236541748,
					0.014285743236541748,
					1
				],
				"metallicFactor":0,
				"roughnessFactor":0.5
			}
		},
		{
			"doubleSided":true,
			"name":"guitar_base.003",
			"pbrMetallicRoughness":{
				"baseColorFactor":[
					0.07263398170471191,
					0.0396181158721447,
					0.028779523447155952,
					1
				],
				"metallicFactor":0,
				"roughnessFactor":0.6171875
			}
		},
		{
			"doubleSided":true,
			"extensions":{
				"KHR_materials_specular":{
					"specularFactor":0.07200002670288086
				}
			},
			"name":"Material.004",
			"pbrMetallicRoughness":{
				"baseColorFactor":[
					0.07142859697341919,
					0.07142859697341919,
					0.07142859697341919,
					1
				],
				"metallicFactor":0,
				"roughnessFactor":0.25
			}
		},
		{
			"doubleSided":true,
			"name":"Material.005",
			"pbrMetallicRoughness":{
				"baseColorFactor":[
					0.07142859697341919,
					0.07142859697341919,
					0.07142859697341919,
					1
				],
				"metallicFactor":0.5625,
				"roughnessFactor":0.078125
			}
		},
		{
			"doubleSided":true,
			"name":"Material.001",
			"pbrMetallicRoughness":{
				"baseColorFactor":[
					0.36836838722229004,
					0.34649452567100525,
					0.33928465843200684,
					1
				],
				"metallicFactor":0.8880000114440918,
				"roughnessFactor":0.2839999794960022
			}
		},
		{
			"doubleSided":true,
			"name":"guitar_base.001",
			"pbrMetallicRoughness":{
				"baseColorFactor":[
					0.7730945348739624,
					0.5265790224075317,
					0.15699437260627747,
					1
				],
				"metallicFactor":0,
				"roughnessFactor":0.5
			}
		},
		{
			"doubleSided":true,
			"name":"guitar_base",
			"pbrMetallicRoughness":{
				"baseColorFactor":[
					0.23570695519447327,
					0.11619740724563599,
					0.041850097477436066,
					1
				],
				"metallicFactor":0,
				"roughnessFactor":0.2734375
			}
		},
		{
			"doubleSided":true,
			"name":"guitar_base.004",
			"pbrMetallicRoughness":{
				"baseColorFactor":[
					0.12977683544158936,
					0.06520359963178635,
					0.04400523751974106,
					1
				],
				"metallicFactor":0,
				"roughnessFactor":0.546875
			}
		},
		{
			"doubleSided":true,
			"name":"guitar_base.002",
			"pbrMetallicRoughness":{
				"baseColorFactor":[
					0.07857143878936768,
					0.07857143878936768,
					0.07857143878936768,
					1
				],
				"metallicFactor":0,
				"roughnessFactor":0.5
			}
		},
		{
			"doubleSided":true,
			"name":"guitar_base_in",
			"pbrMetallicRoughness":{
				"baseColorFactor":[
					0.4858427345752716,
					0.38164329528808594,
					0.1906949132680893,
					1
				],
				"metallicFactor":0,
				"roughnessFactor":0.5
			}
		},
		{
			"doubleSided":true,
			"name":"material",
			"pbrMetallicRoughness":{
				"metallicFactor":0,
				"roughnessFactor":0.5527864098548889
			}
		}
	],
	"meshes":[
		{
			"name":"Cube.002",
			"primitives":[
				{
					"attributes":{
						"POSITION":0,
						"NORMAL":1,
						"TEXCOORD_0":2
					},
					"indices":3,
					"material":0
				}
			]
		},
		{
			"name":"Plane.003",
			"primitives":[
				{
					"attributes":{
						"POSITION":4,
						"NORMAL":5,
						"TEXCOORD_0":6
					},
					"indices":7,
					"material":1
				}
			]
		},
		{
			"name":"Cylinder.007",
			"primitives":[
				{
					"attributes":{
						"POSITION":8,
						"NORMAL":9,
						"TEXCOORD_0":10
					},
					"indices":11,
					"material":0
				}
			]
		},
		{
			"name":"Plane.015",
			"primitives":[
				{
					"attributes":{
						"POSITION":12,
						"NORMAL":13,
						"TEXCOORD_0":14
					},
					"indices":15,
					"material":2
				}
			]
		},
		{
			"name":"Plane.007",
			"primitives":[
				{
					"attributes":{
						"POSITION":16,
						"NORMAL":17,
						"TEXCOORD_0":18
					},
					"indices":19,
					"material":3
				},
				{
					"attributes":{
						"POSITION":20,
						"NORMAL":21,
						"TEXCOORD_0":22
					},
					"indices":23,
					"material":4
				}
			]
		},
		{
			"name":"Plane.016",
			"primitives":[
				{
					"attributes":{
						"POSITION":24,
						"NORMAL":25,
						"TEXCOORD_0":26
					},
					"indices":27,
					"material":5
				}
			]
		},
		{
			"name":"NurbsPath.007",
			"primitives":[
				{
					"attributes":{
						"POSITION":28,
						"NORMAL":29,
						"TEXCOORD_0":30
					},
					"indices":31,
					"material":6
				}
			]
		},
		{
			"name":"Plane.009",
			"primitives":[
				{
					"attributes":{
						"POSITION":32,
						"NORMAL":33,
						"TEXCOORD_0":34
					},
					"indices":35,
					"material":7
				},
				{
					"attributes":{
						"POSITION":36,
						"NORMAL":37,
						"TEXCOORD_0":38
					},
					"indices":39,
					"material":8
				},
				{
					"attributes":{
						"POSITION":40,
						"NORMAL":41,
						"TEXCOORD_0":42
					},
					"indices":43,
					"material":9
				},
				{
					"attributes":{
						"POSITION":44,
						"NORMAL":45,
						"TEXCOORD_0":46
					},
					"indices":47,
					"material":10
				},
				{
					"attributes":{
						"POSITION":48,
						"NORMAL":49,
						"TEXCOORD_0":50
					},
					"indices":51,
					"material":11
				}
			]
		},
		{
			"name":"Mesh.106",
			"primitives":[
				{
					"attributes":{
						"POSITION":52,
						"NORMAL":53,
						"TEXCOORD_0":54,
						"COLOR_0":55,
						"COLOR_1":56
					},
					"indices":57,
					"material":12
				}
			]
		}
	],
	"accessors":[
		{
			"bufferView":0,
			"componentType":5126,
			"count":2988,
			"max":[
				10.395818710327148,
				202.4207305908203,
				42.123043060302734
			],
			"min":[
				-10.387081146240234,
				186.7248077392578,
				40.123043060302734
			],
			"type":"VEC3"
		},
		{
			"bufferView":1,
			"componentType":5126,
			"count":2988,
			"type":"VEC3"
		},
		{
			"bufferView":2,
			"componentType":5126,
			"count":2988,
			"type":"VEC2"
		},
		{
			"bufferView":3,
			"componentType":5123,
			"count":13752,
			"type":"SCALAR"
		},
		{
			"bufferView":4,
			"componentType":5126,
			"count":464,
			"max":[
				2.810882568359375,
				6.454082489013672,
				-5.8784637451171875
			],
			"min":[
				-2.810882568359375,
				6.289385795593262,
				-7.373791694641113
			],
			"type":"VEC3"
		},
		{
			"bufferView":5,
			"componentType":5126,
			"count":464,
			"type":"VEC3"
		},
		{
			"bufferView":6,
			"componentType":5126,
			"count":464,
			"type":"VEC2"
		},
		{
			"bufferView":7,
			"componentType":5123,
			"count":1824,
			"type":"SCALAR"
		},
		{
			"bufferView":8,
			"componentType":5126,
			"count":1399,
			"max":[
				3.394794464111328,
				129.53404235839844,
				128.3443145751953
			],
			"min":[
				-3.400318145751953,
				121.7327651977539,
				118.62763977050781
			],
			"type":"VEC3"
		},
		{
			"bufferView":9,
			"componentType":5126,
			"count":1399,
			"type":"VEC3"
		},
		{
			"bufferView":10,
			"componentType":5126,
			"count":1399,
			"type":"VEC2"
		},
		{
			"bufferView":11,
			"componentType":5123,
			"count":4032,
			"type":"SCALAR"
		},
		{
			"bufferView":12,
			"componentType":5126,
			"count":960,
			"max":[
				10.6312837600708,
				79.38481140136719,
				-72.17914581298828
			],
			"min":[
				-10.631282806396484,
				75.9437026977539,
				-76.57215881347656
			],
			"type":"VEC3"
		},
		{
			"bufferView":13,
			"componentType":5126,
			"count":960,
			"type":"VEC3"
		},
		{
			"bufferView":14,
			"componentType":5126,
			"count":960,
			"type":"VEC2"
		},
		{
			"bufferView":15,
			"componentType":5123,
			"count":4320,
			"type":"SCALAR"
		},
		{
			"bufferView":16,
			"componentType":5126,
			"count":265,
			"max":[
				1.2257750034332275,
				29.677146911621094,
				-18.6447811126709
			],
			"min":[
				-1.2260512113571167,
				28.466352462768555,
				-38.584720611572266
			],
			"type":"VEC3"
		},
		{
			"bufferView":17,
			"componentType":5126,
			"count":265,
			"type":"VEC3"
		},
		{
			"bufferView":18,
			"componentType":5126,
			"count":265,
			"type":"VEC2"
		},
		{
			"bufferView":19,
			"componentType":5123,
			"count":984,
			"type":"SCALAR"
		},
		{
			"bufferView":20,
			"componentType":5126,
			"count":458,
			"max":[
				1.3378303050994873,
				29.565584182739258,
				-38.584720611572266
			],
			"min":[
				-1.3378305435180664,
				28.577917098999023,
				-44.8033332824707
			],
			"type":"VEC3"
		},
		{
			"bufferView":21,
			"componentType":5126,
			"count":458,
			"type":"VEC3"
		},
		{
			"bufferView":22,
			"componentType":5126,
			"count":458,
			"type":"VEC2"
		},
		{
			"bufferView":23,
			"componentType":5123,
			"count":1740,
			"type":"SCALAR"
		},
		{
			"bufferView":24,
			"componentType":5126,
			"count":160,
			"max":[
				0.7514824271202087,
				29.67510223388672,
				-38.408267974853516
			],
			"min":[
				-0.7514848709106445,
				29.392845153808594,
				-38.585205078125
			],
			"type":"VEC3"
		},
		{
			"bufferView":25,
			"componentType":5126,
			"count":160,
			"type":"VEC3"
		},
		{
			"bufferView":26,
			"componentType":5126,
			"count":160,
			"type":"VEC2"
		},
		{
			"bufferView":27,
			"componentType":5123,
			"count":444,
			"type":"SCALAR"
		},
		{
			"bufferView":28,
			"componentType":5126,
			"count":5460,
			"max":[
				4.622335910797119,
				0.12264647334814072,
				0.9955263733863831
			],
			"min":[
				0.9440245628356934,
				-0.12329544872045517,
				0.9895263314247131
			],
			"type":"VEC3"
		},
		{
			"bufferView":29,
			"componentType":5126,
			"count":5460,
			"type":"VEC3"
		},
		{
			"bufferView":30,
			"componentType":5126,
			"count":5460,
			"type":"VEC2"
		},
		{
			"bufferView":31,
			"componentType":5123,
			"count":29808,
			"type":"SCALAR"
		},
		{
			"bufferView":32,
			"componentType":5126,
			"count":2393,
			"max":[
				0.5944536924362183,
				0.13367989659309387,
				1.6263350248336792
			],
			"min":[
				-0.6841824650764465,
				-0.13367992639541626,
				0
			],
			"type":"VEC3"
		},
		{
			"bufferView":33,
			"componentType":5126,
			"count":2393,
			"type":"VEC3"
		},
		{
			"bufferView":34,
			"componentType":5126,
			"count":2393,
			"type":"VEC2"
		},
		{
			"bufferView":35,
			"componentType":5123,
			"count":11814,
			"type":"SCALAR"
		},
		{
			"bufferView":36,
			"componentType":5126,
			"count":1277,
			"max":[
				0.5944536924362183,
				0.13031840324401855,
				1.6263350248336792
			],
			"min":[
				-0.6841824650764465,
				-0.13367992639541626,
				0
			],
			"type":"VEC3"
		},
		{
			"bufferView":37,
			"componentType":5126,
			"count":1277,
			"type":"VEC3"
		},
		{
			"bufferView":38,
			"componentType":5126,
			"count":1277,
			"type":"VEC2"
		},
		{
			"bufferView":39,
			"componentType":5123,
			"count":6348,
			"type":"SCALAR"
		},
		{
			"bufferView":40,
			"componentType":5126,
			"count":850,
			"max":[
				0.2017064094543457,
				-0.12367992848157883,
				1.3707964420318604
			],
			"min":[
				-0.2551693618297577,
				-0.13367992639541626,
				0.9139206409454346
			],
			"type":"VEC3"
		},
		{
			"bufferView":41,
			"componentType":5126,
			"count":850,
			"type":"VEC3"
		},
		{
			"bufferView":42,
			"componentType":5126,
			"count":850,
			"type":"VEC2"
		},
		{
			"bufferView":43,
			"componentType":5123,
			"count":4200,
			"type":"SCALAR"
		},
		{
			"bufferView":44,
			"componentType":5126,
			"count":942,
			"max":[
				0.5944536924362183,
				0.13367989659309387,
				1.6263350248336792
			],
			"min":[
				-0.6841824650764465,
				-0.13367992639541626,
				0
			],
			"type":"VEC3"
		},
		{
			"bufferView":45,
			"componentType":5126,
			"count":942,
			"type":"VEC3"
		},
		{
			"bufferView":46,
			"componentType":5126,
			"count":942,
			"type":"VEC2"
		},
		{
			"bufferView":47,
			"componentType":5123,
			"count":3738,
			"type":"SCALAR"
		},
		{
			"bufferView":48,
			"componentType":5126,
			"count":234,
			"max":[
				0.5432813167572021,
				0.12369532138109207,
				1.580910563468933
			],
			"min":[
				-0.6349824666976929,
				0.1236950233578682,
				0.08026289939880371
			],
			"type":"VEC3"
		},
		{
			"bufferView":49,
			"componentType":5126,
			"count":234,
			"type":"VEC3"
		},
		{
			"bufferView":50,
			"componentType":5126,
			"count":234,
			"type":"VEC2"
		},
		{
			"bufferView":51,
			"componentType":5123,
			"count":1164,
			"type":"SCALAR"
		},
		{
			"bufferView":52,
			"componentType":5126,
			"count":794,
			"max":[
				0.04935548081994057,
				0.2149195373058319,
				0.2835550010204315
			],
			"min":[
				-0.04935545474290848,
				-0.0008720457553863525,
				-0.16013354063034058
			],
			"type":"VEC3"
		},
		{
			"bufferView":53,
			"componentType":5126,
			"count":794,
			"type":"VEC3"
		},
		{
			"bufferView":54,
			"componentType":5126,
			"count":794,
			"type":"VEC2"
		},
		{
			"bufferView":55,
			"componentType":5121,
			"count":794,
			"normalized":true,
			"type":"VEC4"
		},
		{
			"bufferView":56,
			"componentType":5123,
			"count":794,
			"normalized":true,
			"type":"VEC4"
		},
		{
			"bufferView":57,
			"componentType":5123,
			"count":3948,
			"type":"SCALAR"
		}
	],
	"bufferViews":[
		{
			"buffer":0,
			"byteLength":35856,
			"byteOffset":0,
			"target":34962
		},
		{
			"buffer":0,
			"byteLength":35856,
			"byteOffset":35856,
			"target":34962
		},
		{
			"buffer":0,
			"byteLength":23904,
			"byteOffset":71712,
			"target":34962
		},
		{
			"buffer":0,
			"byteLength":27504,
			"byteOffset":95616,
			"target":34963
		},
		{
			"buffer":0,
			"byteLength":5568,
			"byteOffset":123120,
			"target":34962
		},
		{
			"buffer":0,
			"byteLength":5568,
			"byteOffset":128688,
			"target":34962
		},
		{
			"buffer":0,
			"byteLength":3712,
			"byteOffset":134256,
			"target":34962
		},
		{
			"buffer":0,
			"byteLength":3648,
			"byteOffset":137968,
			"target":34963
		},
		{
			"buffer":0,
			"byteLength":16788,
			"byteOffset":141616,
			"target":34962
		},
		{
			"buffer":0,
			"byteLength":16788,
			"byteOffset":158404,
			"target":34962
		},
		{
			"buffer":0,
			"byteLength":11192,
			"byteOffset":175192,
			"target":34962
		},
		{
			"buffer":0,
			"byteLength":8064,
			"byteOffset":186384,
			"target":34963
		},
		{
			"buffer":0,
			"byteLength":11520,
			"byteOffset":194448,
			"target":34962
		},
		{
			"buffer":0,
			"byteLength":11520,
			"byteOffset":205968,
			"target":34962
		},
		{
			"buffer":0,
			"byteLength":7680,
			"byteOffset":217488,
			"target":34962
		},
		{
			"buffer":0,
			"byteLength":8640,
			"byteOffset":225168,
			"target":34963
		},
		{
			"buffer":0,
			"byteLength":3180,
			"byteOffset":233808,
			"target":34962
		},
		{
			"buffer":0,
			"byteLength":3180,
			"byteOffset":236988,
			"target":34962
		},
		{
			"buffer":0,
			"byteLength":2120,
			"byteOffset":240168,
			"target":34962
		},
		{
			"buffer":0,
			"byteLength":1968,
			"byteOffset":242288,
			"target":34963
		},
		{
			"buffer":0,
			"byteLength":5496,
			"byteOffset":244256,
			"target":34962
		},
		{
			"buffer":0,
			"byteLength":5496,
			"byteOffset":249752,
			"target":34962
		},
		{
			"buffer":0,
			"byteLength":3664,
			"byteOffset":255248,
			"target":34962
		},
		{
			"buffer":0,
			"byteLength":3480,
			"byteOffset":258912,
			"target":34963
		},
		{
			"buffer":0,
			"byteLength":1920,
			"byteOffset":262392,
			"target":34962
		},
		{
			"buffer":0,
			"byteLength":1920,
			"byteOffset":264312,
			"target":34962
		},
		{
			"buffer":0,
			"byteLength":1280,
			"byteOffset":266232,
			"target":34962
		},
		{
			"buffer":0,
			"byteLength":888,
			"byteOffset":267512,
			"target":34963
		},
		{
			"buffer":0,
			"byteLength":65520,
			"byteOffset":268400,
			"target":34962
		},
		{
			"buffer":0,
			"byteLength":65520,
			"byteOffset":333920,
			"target":34962
		},
		{
			"buffer":0,
			"byteLength":43680,
			"byteOffset":399440,
			"target":34962
		},
		{
			"buffer":0,
			"byteLength":59616,
			"byteOffset":443120,
			"target":34963
		},
		{
			"buffer":0,
			"byteLength":28716,
			"byteOffset":502736,
			"target":34962
		},
		{
			"buffer":0,
			"byteLength":28716,
			"byteOffset":531452,
			"target":34962
		},
		{
			"buffer":0,
			"byteLength":19144,
			"byteOffset":560168,
			"target":34962
		},
		{
			"buffer":0,
			"byteLength":23628,
			"byteOffset":579312,
			"target":34963
		},
		{
			"buffer":0,
			"byteLength":15324,
			"byteOffset":602940,
			"target":34962
		},
		{
			"buffer":0,
			"byteLength":15324,
			"byteOffset":618264,
			"target":34962
		},
		{
			"buffer":0,
			"byteLength":10216,
			"byteOffset":633588,
			"target":34962
		},
		{
			"buffer":0,
			"byteLength":12696,
			"byteOffset":643804,
			"target":34963
		},
		{
			"buffer":0,
			"byteLength":10200,
			"byteOffset":656500,
			"target":34962
		},
		{
			"buffer":0,
			"byteLength":10200,
			"byteOffset":666700,
			"target":34962
		},
		{
			"buffer":0,
			"byteLength":6800,
			"byteOffset":676900,
			"target":34962
		},
		{
			"buffer":0,
			"byteLength":8400,
			"byteOffset":683700,
			"target":34963
		},
		{
			"buffer":0,
			"byteLength":11304,
			"byteOffset":692100,
			"target":34962
		},
		{
			"buffer":0,
			"byteLength":11304,
			"byteOffset":703404,
			"target":34962
		},
		{
			"buffer":0,
			"byteLength":7536,
			"byteOffset":714708,
			"target":34962
		},
		{
			"buffer":0,
			"byteLength":7476,
			"byteOffset":722244,
			"target":34963
		},
		{
			"buffer":0,
			"byteLength":2808,
			"byteOffset":729720,
			"target":34962
		},
		{
			"buffer":0,
			"byteLength":2808,
			"byteOffset":732528,
			"target":34962
		},
		{
			"buffer":0,
			"byteLength":1872,
			"byteOffset":735336,
			"target":34962
		},
		{
			"buffer":0,
			"byteLength":2328,
			"byteOffset":737208,
			"target":34963
		},
		{
			"buffer":0,
			"byteLength":9528,
			"byteOffset":739536,
			"target":34962
		},
		{
			"buffer":0,
			"byteLength":9528,
			"byteOffset":749064,
			"target":34962
		},
		{
			"buffer":0,
			"byteLength":6352,
			"byteOffset":758592,
			"target":34962
		},
		{
			"buffer":0,
			"byteLength":3176,
			"byteOffset":764944,
			"target":34962
		},
		{
			"buffer":0,
			"byteLength":6352,
			"byteOffset":768120,
			"target":34962
		},
		{
			"buffer":0,
			"byteLength":7896,
			"byteOffset":774472,
			"target":34963
		}
	],
	"buffers":[
		{
			"byteLength":782368,
			"uri":"dager.bin"
		}
	]
}
