{
	"asset":{
		"generator":"Khronos glTF Blender I/O v4.3.47",
		"version":"2.0"
	},
	"extensionsUsed":[
		"KHR_materials_specular"
	],
	"scene":0,
	"scenes":[
		{
			"name":"Scene",
			"nodes":[
				2
			]
		}
	],
	"nodes":[
		{
			"mesh":0,
			"name":"guitar_handle",
			"scale":[
				-0.09303995221853256,
				-0.022419840097427368,
				-0.07243796437978745
			],
			"translation":[
				-0.023983508348464966,
				0.5074021220207214,
				-0.013054776936769485
			]
		},
		{
			"mesh":1,
			"name":"guitar_strings",
			"rotation":[
				-0.5000001192092896,
				0.49999985098838806,
				0.5,
				0.5
			],
			"scale":[
				-0.6718437075614929,
				-0.6718437671661377,
				-0.6718437671661377
			],
			"translation":[
				-0.02398350089788437,
				0.5074021220207214,
				-0.013054657727479935
			]
		},
		{
			"children":[
				0,
				1
			],
			"mesh":2,
			"name":"guitar_base",
			"rotation":[
				0.02167469635605812,
				0.7067745327949524,
				-0.7067744731903076,
				0.02167470008134842
			],
			"scale":[
				-0.2136790156364441,
				-0.29490360617637634,
				-0.23611992597579956
			],
			"translation":[
				0,
				0.1285267472267151,
				-0.48778337240219116
			]
		}
	],
	"materials":[
		{
			"doubleSided":true,
			"name":"guitar_base.003",
			"pbrMetallicRoughness":{
				"baseColorFactor":[
					0.07263398170471191,
					0.0396181158721447,
					0.028779523447155952,
					1
				],
				"metallicFactor":0,
				"roughnessFactor":0.6171875
			}
		},
		{
			"doubleSided":true,
			"extensions":{
				"KHR_materials_specular":{
					"specularFactor":0.07200002670288086
				}
			},
			"name":"Material.004",
			"pbrMetallicRoughness":{
				"baseColorFactor":[
					0.07142859697341919,
					0.07142859697341919,
					0.07142859697341919,
					1
				],
				"metallicFactor":0,
				"roughnessFactor":0.25
			}
		},
		{
			"doubleSided":true,
			"name":"Material.001",
			"pbrMetallicRoughness":{
				"baseColorFactor":[
					0.36836838722229004,
					0.34649452567100525,
					0.33928465843200684,
					1
				],
				"metallicFactor":0.8880000114440918,
				"roughnessFactor":0.2839999794960022
			}
		},
		{
			"doubleSided":true,
			"name":"guitar_base.001",
			"pbrMetallicRoughness":{
				"baseColorFactor":[
					0.7730945348739624,
					0.5265790224075317,
					0.15699437260627747,
					1
				],
				"metallicFactor":0,
				"roughnessFactor":0.5
			}
		},
		{
			"doubleSided":true,
			"name":"guitar_base",
			"pbrMetallicRoughness":{
				"baseColorFactor":[
					0.23570695519447327,
					0.11619740724563599,
					0.041850097477436066,
					1
				],
				"metallicFactor":0,
				"roughnessFactor":0.2734375
			}
		},
		{
			"doubleSided":true,
			"name":"guitar_base.004",
			"pbrMetallicRoughness":{
				"baseColorFactor":[
					0.12977683544158936,
					0.06520359963178635,
					0.04400523751974106,
					1
				],
				"metallicFactor":0,
				"roughnessFactor":0.546875
			}
		},
		{
			"doubleSided":true,
			"name":"guitar_base.002",
			"pbrMetallicRoughness":{
				"baseColorFactor":[
					0.07857143878936768,
					0.07857143878936768,
					0.07857143878936768,
					1
				],
				"metallicFactor":0,
				"roughnessFactor":0.5
			}
		},
		{
			"doubleSided":true,
			"name":"guitar_base_in",
			"pbrMetallicRoughness":{
				"baseColorFactor":[
					0.4858427345752716,
					0.38164329528808594,
					0.1906949132680893,
					1
				],
				"metallicFactor":0,
				"roughnessFactor":0.5
			}
		}
	],
	"meshes":[
		{
			"name":"Plane.007",
			"primitives":[
				{
					"attributes":{
						"POSITION":0,
						"NORMAL":1,
						"TEXCOORD_0":2
					},
					"indices":3,
					"material":0
				},
				{
					"attributes":{
						"POSITION":4,
						"NORMAL":5,
						"TEXCOORD_0":6
					},
					"indices":7,
					"material":1
				}
			]
		},
		{
			"name":"NurbsPath.007",
			"primitives":[
				{
					"attributes":{
						"POSITION":8,
						"NORMAL":9,
						"TEXCOORD_0":10
					},
					"indices":11,
					"material":2
				}
			]
		},
		{
			"name":"Plane.009",
			"primitives":[
				{
					"attributes":{
						"POSITION":12,
						"NORMAL":13,
						"TEXCOORD_0":14
					},
					"indices":15,
					"material":3
				},
				{
					"attributes":{
						"POSITION":16,
						"NORMAL":17,
						"TEXCOORD_0":18
					},
					"indices":19,
					"material":4
				},
				{
					"attributes":{
						"POSITION":20,
						"NORMAL":21,
						"TEXCOORD_0":22
					},
					"indices":23,
					"material":5
				},
				{
					"attributes":{
						"POSITION":24,
						"NORMAL":25,
						"TEXCOORD_0":26
					},
					"indices":27,
					"material":6
				},
				{
					"attributes":{
						"POSITION":28,
						"NORMAL":29,
						"TEXCOORD_0":30
					},
					"indices":31,
					"material":7
				}
			]
		}
	],
	"accessors":[
		{
			"bufferView":0,
			"componentType":5126,
			"count":265,
			"max":[
				1.2257750034332275,
				29.677146911621094,
				-18.6447811126709
			],
			"min":[
				-1.2260512113571167,
				28.466352462768555,
				-38.584720611572266
			],
			"type":"VEC3"
		},
		{
			"bufferView":1,
			"componentType":5126,
			"count":265,
			"type":"VEC3"
		},
		{
			"bufferView":2,
			"componentType":5126,
			"count":265,
			"type":"VEC2"
		},
		{
			"bufferView":3,
			"componentType":5123,
			"count":984,
			"type":"SCALAR"
		},
		{
			"bufferView":4,
			"componentType":5126,
			"count":458,
			"max":[
				1.3378303050994873,
				29.565584182739258,
				-38.584720611572266
			],
			"min":[
				-1.3378305435180664,
				28.577917098999023,
				-44.8033332824707
			],
			"type":"VEC3"
		},
		{
			"bufferView":5,
			"componentType":5126,
			"count":458,
			"type":"VEC3"
		},
		{
			"bufferView":6,
			"componentType":5126,
			"count":458,
			"type":"VEC2"
		},
		{
			"bufferView":7,
			"componentType":5123,
			"count":1740,
			"type":"SCALAR"
		},
		{
			"bufferView":8,
			"componentType":5126,
			"count":5460,
			"max":[
				4.622335910797119,
				0.12264647334814072,
				0.9955263733863831
			],
			"min":[
				0.9440245628356934,
				-0.12329544872045517,
				0.9895263314247131
			],
			"type":"VEC3"
		},
		{
			"bufferView":9,
			"componentType":5126,
			"count":5460,
			"type":"VEC3"
		},
		{
			"bufferView":10,
			"componentType":5126,
			"count":5460,
			"type":"VEC2"
		},
		{
			"bufferView":11,
			"componentType":5123,
			"count":29808,
			"type":"SCALAR"
		},
		{
			"bufferView":12,
			"componentType":5126,
			"count":2393,
			"max":[
				0.5944536924362183,
				0.13367989659309387,
				1.6263350248336792
			],
			"min":[
				-0.6841824650764465,
				-0.13367992639541626,
				0
			],
			"type":"VEC3"
		},
		{
			"bufferView":13,
			"componentType":5126,
			"count":2393,
			"type":"VEC3"
		},
		{
			"bufferView":14,
			"componentType":5126,
			"count":2393,
			"type":"VEC2"
		},
		{
			"bufferView":15,
			"componentType":5123,
			"count":11814,
			"type":"SCALAR"
		},
		{
			"bufferView":16,
			"componentType":5126,
			"count":1277,
			"max":[
				0.5944536924362183,
				0.13031840324401855,
				1.6263350248336792
			],
			"min":[
				-0.6841824650764465,
				-0.13367992639541626,
				0
			],
			"type":"VEC3"
		},
		{
			"bufferView":17,
			"componentType":5126,
			"count":1277,
			"type":"VEC3"
		},
		{
			"bufferView":18,
			"componentType":5126,
			"count":1277,
			"type":"VEC2"
		},
		{
			"bufferView":19,
			"componentType":5123,
			"count":6348,
			"type":"SCALAR"
		},
		{
			"bufferView":20,
			"componentType":5126,
			"count":850,
			"max":[
				0.2017064094543457,
				-0.12367992848157883,
				1.3707964420318604
			],
			"min":[
				-0.2551693618297577,
				-0.13367992639541626,
				0.9139206409454346
			],
			"type":"VEC3"
		},
		{
			"bufferView":21,
			"componentType":5126,
			"count":850,
			"type":"VEC3"
		},
		{
			"bufferView":22,
			"componentType":5126,
			"count":850,
			"type":"VEC2"
		},
		{
			"bufferView":23,
			"componentType":5123,
			"count":4200,
			"type":"SCALAR"
		},
		{
			"bufferView":24,
			"componentType":5126,
			"count":942,
			"max":[
				0.5944536924362183,
				0.13367989659309387,
				1.6263350248336792
			],
			"min":[
				-0.6841824650764465,
				-0.13367992639541626,
				0
			],
			"type":"VEC3"
		},
		{
			"bufferView":25,
			"componentType":5126,
			"count":942,
			"type":"VEC3"
		},
		{
			"bufferView":26,
			"componentType":5126,
			"count":942,
			"type":"VEC2"
		},
		{
			"bufferView":27,
			"componentType":5123,
			"count":3738,
			"type":"SCALAR"
		},
		{
			"bufferView":28,
			"componentType":5126,
			"count":234,
			"max":[
				0.5432813167572021,
				0.12369532138109207,
				1.580910563468933
			],
			"min":[
				-0.6349824666976929,
				0.1236950233578682,
				0.08026289939880371
			],
			"type":"VEC3"
		},
		{
			"bufferView":29,
			"componentType":5126,
			"count":234,
			"type":"VEC3"
		},
		{
			"bufferView":30,
			"componentType":5126,
			"count":234,
			"type":"VEC2"
		},
		{
			"bufferView":31,
			"componentType":5123,
			"count":1164,
			"type":"SCALAR"
		}
	],
	"bufferViews":[
		{
			"buffer":0,
			"byteLength":3180,
			"byteOffset":0,
			"target":34962
		},
		{
			"buffer":0,
			"byteLength":3180,
			"byteOffset":3180,
			"target":34962
		},
		{
			"buffer":0,
			"byteLength":2120,
			"byteOffset":6360,
			"target":34962
		},
		{
			"buffer":0,
			"byteLength":1968,
			"byteOffset":8480,
			"target":34963
		},
		{
			"buffer":0,
			"byteLength":5496,
			"byteOffset":10448,
			"target":34962
		},
		{
			"buffer":0,
			"byteLength":5496,
			"byteOffset":15944,
			"target":34962
		},
		{
			"buffer":0,
			"byteLength":3664,
			"byteOffset":21440,
			"target":34962
		},
		{
			"buffer":0,
			"byteLength":3480,
			"byteOffset":25104,
			"target":34963
		},
		{
			"buffer":0,
			"byteLength":65520,
			"byteOffset":28584,
			"target":34962
		},
		{
			"buffer":0,
			"byteLength":65520,
			"byteOffset":94104,
			"target":34962
		},
		{
			"buffer":0,
			"byteLength":43680,
			"byteOffset":159624,
			"target":34962
		},
		{
			"buffer":0,
			"byteLength":59616,
			"byteOffset":203304,
			"target":34963
		},
		{
			"buffer":0,
			"byteLength":28716,
			"byteOffset":262920,
			"target":34962
		},
		{
			"buffer":0,
			"byteLength":28716,
			"byteOffset":291636,
			"target":34962
		},
		{
			"buffer":0,
			"byteLength":19144,
			"byteOffset":320352,
			"target":34962
		},
		{
			"buffer":0,
			"byteLength":23628,
			"byteOffset":339496,
			"target":34963
		},
		{
			"buffer":0,
			"byteLength":15324,
			"byteOffset":363124,
			"target":34962
		},
		{
			"buffer":0,
			"byteLength":15324,
			"byteOffset":378448,
			"target":34962
		},
		{
			"buffer":0,
			"byteLength":10216,
			"byteOffset":393772,
			"target":34962
		},
		{
			"buffer":0,
			"byteLength":12696,
			"byteOffset":403988,
			"target":34963
		},
		{
			"buffer":0,
			"byteLength":10200,
			"byteOffset":416684,
			"target":34962
		},
		{
			"buffer":0,
			"byteLength":10200,
			"byteOffset":426884,
			"target":34962
		},
		{
			"buffer":0,
			"byteLength":6800,
			"byteOffset":437084,
			"target":34962
		},
		{
			"buffer":0,
			"byteLength":8400,
			"byteOffset":443884,
			"target":34963
		},
		{
			"buffer":0,
			"byteLength":11304,
			"byteOffset":452284,
			"target":34962
		},
		{
			"buffer":0,
			"byteLength":11304,
			"byteOffset":463588,
			"target":34962
		},
		{
			"buffer":0,
			"byteLength":7536,
			"byteOffset":474892,
			"target":34962
		},
		{
			"buffer":0,
			"byteLength":7476,
			"byteOffset":482428,
			"target":34963
		},
		{
			"buffer":0,
			"byteLength":2808,
			"byteOffset":489904,
			"target":34962
		},
		{
			"buffer":0,
			"byteLength":2808,
			"byteOffset":492712,
			"target":34962
		},
		{
			"buffer":0,
			"byteLength":1872,
			"byteOffset":495520,
			"target":34962
		},
		{
			"buffer":0,
			"byteLength":2328,
			"byteOffset":497392,
			"target":34963
		}
	],
	"buffers":[
		{
			"byteLength":499720,
			"uri":"guitar.bin"
		}
	]
}
