{
	"asset":{
		"generator":"Khronos glTF Blender I/O v4.3.47",
		"version":"2.0"
	},
	"scene":0,
	"scenes":[
		{
			"name":"Scene",
			"nodes":[
				0
			]
		}
	],
	"nodes":[
		{
			"mesh":0,
			"name":"mesh_mouse",
			"rotation":[
				-0.09665053337812424,
				-0.5635645389556885,
				0.8203648328781128,
				0.007433864288032055
			],
			"scale":[
				0.10050211101770401,
				0.08328087627887726,
				0.1008530780673027
			],
			"translation":[
				0.00013414269778877497,
				0.3132518529891968,
				-0.5935442447662354
			]
		}
	],
	"materials":[
		{
			"doubleSided":true,
			"name":"mat_mouse_wheel_plastic",
			"pbrMetallicRoughness":{
				"baseColorFactor":[
					0.4374999403953552,
					0.375,
					0.75,
					1
				],
				"metallicFactor":0,
				"roughnessFactor":0.5527864098548889
			}
		},
		{
			"doubleSided":true,
			"name":"mat_mouse_plasticMatte",
			"pbrMetallicRoughness":{
				"baseColorFactor":[
					0.125,
					0.125,
					0.125,
					1
				],
				"metallicFactor":0.5,
				"roughnessFactor":0.8862167596817017
			}
		},
		{
			"doubleSided":true,
			"name":"mat_mouse_plasticShiny",
			"pbrMetallicRoughness":{
				"baseColorFactor":[
					0.10000000149011612,
					0.10000000149011612,
					0.10000000149011612,
					1
				],
				"metallicFactor":0.10000000149011612,
				"roughnessFactor":0.2928932309150696
			}
		}
	],
	"meshes":[
		{
			"name":"Malla.105",
			"primitives":[
				{
					"attributes":{
						"POSITION":0,
						"NORMAL":1,
						"TEXCOORD_0":2
					},
					"indices":3,
					"material":0
				},
				{
					"attributes":{
						"POSITION":4,
						"NORMAL":5,
						"TEXCOORD_0":6
					},
					"indices":7,
					"material":1
				},
				{
					"attributes":{
						"POSITION":8,
						"NORMAL":9,
						"TEXCOORD_0":10
					},
					"indices":11,
					"material":2
				}
			]
		}
	],
	"accessors":[
		{
			"bufferView":0,
			"componentType":5126,
			"count":220,
			"max":[
				0.11019351333379745,
				-1.6116700172424316,
				-0.8856682777404785
			],
			"min":[
				-0.11019351333379745,
				-2.3326914310455322,
				-1.1631896495819092
			],
			"type":"VEC3"
		},
		{
			"bufferView":1,
			"componentType":5126,
			"count":220,
			"type":"VEC3"
		},
		{
			"bufferView":2,
			"componentType":5126,
			"count":220,
			"type":"VEC2"
		},
		{
			"bufferView":3,
			"componentType":5123,
			"count":996,
			"type":"SCALAR"
		},
		{
			"bufferView":4,
			"componentType":5126,
			"count":417,
			"max":[
				1.247318983078003,
				1.0258287191390991,
				0.0035749897360801697
			],
			"min":[
				-1.2475138902664185,
				-3.677711009979248,
				-1.0114918947219849
			],
			"type":"VEC3"
		},
		{
			"bufferView":5,
			"componentType":5126,
			"count":417,
			"type":"VEC3"
		},
		{
			"bufferView":6,
			"componentType":5126,
			"count":417,
			"type":"VEC2"
		},
		{
			"bufferView":7,
			"componentType":5123,
			"count":2004,
			"type":"SCALAR"
		},
		{
			"bufferView":8,
			"componentType":5126,
			"count":141,
			"max":[
				1.2186768054962158,
				0.9980922341346741,
				0.001234889030456543
			],
			"min":[
				-1.2188525199890137,
				-3.594526767730713,
				-0.721274733543396
			],
			"type":"VEC3"
		},
		{
			"bufferView":9,
			"componentType":5126,
			"count":141,
			"type":"VEC3"
		},
		{
			"bufferView":10,
			"componentType":5126,
			"count":141,
			"type":"VEC2"
		},
		{
			"bufferView":11,
			"componentType":5123,
			"count":552,
			"type":"SCALAR"
		}
	],
	"bufferViews":[
		{
			"buffer":0,
			"byteLength":2640,
			"byteOffset":0,
			"target":34962
		},
		{
			"buffer":0,
			"byteLength":2640,
			"byteOffset":2640,
			"target":34962
		},
		{
			"buffer":0,
			"byteLength":1760,
			"byteOffset":5280,
			"target":34962
		},
		{
			"buffer":0,
			"byteLength":1992,
			"byteOffset":7040,
			"target":34963
		},
		{
			"buffer":0,
			"byteLength":5004,
			"byteOffset":9032,
			"target":34962
		},
		{
			"buffer":0,
			"byteLength":5004,
			"byteOffset":14036,
			"target":34962
		},
		{
			"buffer":0,
			"byteLength":3336,
			"byteOffset":19040,
			"target":34962
		},
		{
			"buffer":0,
			"byteLength":4008,
			"byteOffset":22376,
			"target":34963
		},
		{
			"buffer":0,
			"byteLength":1692,
			"byteOffset":26384,
			"target":34962
		},
		{
			"buffer":0,
			"byteLength":1692,
			"byteOffset":28076,
			"target":34962
		},
		{
			"buffer":0,
			"byteLength":1128,
			"byteOffset":29768,
			"target":34962
		},
		{
			"buffer":0,
			"byteLength":1104,
			"byteOffset":30896,
			"target":34963
		}
	],
	"buffers":[
		{
			"byteLength":32000,
			"uri":"mouse.bin"
		}
	]
}
